<svg width="1384" height="1659" viewBox="0 0 1384 1659" fill="none" xmlns="http://www.w3.org/2000/svg">
<path fill-rule="evenodd" clip-rule="evenodd" d="M1195.7 797.662C1270.35 769.179 1356.13 743.581 1393.8 673.325C1432.11 601.893 1399.27 517.179 1389 437.195C1377.68 349.024 1393.22 247.083 1330.94 183.747C1267.96 119.693 1165.33 109.76 1075.27 118.145C995.212 125.6 936.057 186.875 866.239 227.017C796.247 267.258 698.617 279.405 666.468 353.185C634.341 426.916 695.099 504.717 711.06 583.146C727.16 662.251 698.487 762.253 760.294 814.202C822.204 866.238 916.725 827.425 998.021 824.337C1066.09 821.752 1131.95 821.986 1195.7 797.662Z" fill="#4754EB"/>
<path fill-rule="evenodd" clip-rule="evenodd" d="M960.523 159.899C906.927 209.423 947.403 295.792 933.104 365.433C923.526 412.082 891.114 451.831 890.895 499.015C890.637 554.472 888.119 620.855 931.76 654.592C975.39 688.321 1042.72 647.634 1097.85 659.002C1166.25 673.107 1221.73 752.982 1288.62 728.18C1353.23 704.225 1364.19 617.649 1383.45 553.11C1400.08 497.402 1410.99 438.228 1391.01 385.139C1372.56 336.118 1316.87 316.197 1280.17 278.704C1239.07 236.718 1219.41 173.444 1163.4 152.628C1099.6 128.914 1011.93 112.401 960.523 159.899Z" fill="#8633B0"/>
<path fill-rule="evenodd" clip-rule="evenodd" d="M1045.18 1480.08C1093.37 1519.77 1143.82 1568.31 1206.67 1565.23C1270.56 1562.09 1316.4 1504.42 1367.62 1464.26C1424.07 1420 1500.29 1388.55 1520.14 1319.42C1540.2 1249.51 1507.8 1174.65 1467.58 1116.03C1431.82 1063.92 1366.95 1048.48 1312.57 1016.95C1258.06 985.342 1212.35 923.061 1149.19 931.411C1086.07 939.756 1055.67 1013.82 1007.71 1057.26C959.332 1101.07 879.425 1122.66 867.251 1186.76C855.057 1250.96 917.965 1300.07 951.187 1354.84C979.001 1400.69 1004.03 1446.2 1045.18 1480.08Z" fill="white"/>
<circle cx="382" cy="974" r="294" fill="white"/>
<circle cx="175" cy="1113" r="175" fill="#EB478B"/>
</svg>
