<svg width="24" height="24" viewBox="0 0 24 24" fill="none" xmlns="http://www.w3.org/2000/svg">
<path fill-rule="evenodd" clip-rule="evenodd" d="M5.12129 18.8493C4.73077 18.4587 4.73077 17.8256 5.12129 17.435L17.8492 4.70712C18.2397 4.3166 18.8729 4.3166 19.2634 4.70712C19.654 5.09765 19.654 5.73081 19.2634 6.12134L6.5355 18.8493C6.14498 19.2398 5.51182 19.2398 5.12129 18.8493Z" fill="#4754EB"/>
<path fill-rule="evenodd" clip-rule="evenodd" d="M4.70708 4.84926C5.0976 4.45873 5.73077 4.45873 6.12129 4.84926L18.8492 17.5772C19.2397 17.9677 19.2397 18.6009 18.8492 18.9914C18.4587 19.3819 17.8255 19.3819 17.435 18.9914L4.70708 6.26347C4.31655 5.87295 4.31655 5.23978 4.70708 4.84926Z" fill="#4754EB"/>
</svg>
