<svg width="1416" height="1673" viewBox="0 0 1416 1673" fill="none" xmlns="http://www.w3.org/2000/svg">
<g opacity="0.75">
<path fill-rule="evenodd" clip-rule="evenodd" d="M-130.054 1159.35C-112.709 1083.45 -148.357 988.746 -90.2769 934.919C-32.0348 880.942 66.4382 886.815 148.239 901.433C219.318 914.135 266.001 974.227 328.544 1009.76C395.309 1047.7 501.33 1046.97 526.552 1116.39C552.016 1186.47 454.706 1240.39 438.214 1311.61C420.76 1386.99 477.217 1477.19 428.817 1538.47C379.305 1601.16 283.086 1619.14 199.176 1614.26C119.328 1609.62 55.3306 1555.68 -11.9108 1512.85C-78.39 1470.51 -164.994 1438.94 -189.031 1367.02C-212.845 1295.76 -146.491 1231.26 -130.054 1159.35Z" fill="#4754EB"/>
<path fill-rule="evenodd" clip-rule="evenodd" d="M-220.07 1197.38C-226.436 1148.36 -240.834 1096.99 -215.825 1052.99C-188.954 1005.71 -138.42 970.306 -81.8853 954.256C-25.561 938.266 35.2953 947.3 90.5631 966.007C143.801 984.026 199.241 1010.67 222.281 1057.2C244.094 1101.27 213.628 1149.8 205.107 1197.38C198.235 1235.75 201.409 1276.02 177.301 1308.35C152.596 1341.47 112.456 1360.71 71.5589 1376.47C26.7142 1393.75 -20.9035 1413.69 -68.2478 1402.99C-116.851 1392 -153.621 1356.72 -181.242 1319.32C-207.937 1283.16 -214.482 1240.41 -220.07 1197.38Z" fill="#8633B0"/>
</g>
<g opacity="0.75">
<path fill-rule="evenodd" clip-rule="evenodd" d="M970.883 480.678C978.741 539.033 1015.42 585.781 1048.72 634.229C1082.95 684.035 1113.14 738.274 1166.81 765.744C1226.26 796.178 1295.06 808.652 1360.08 793.618C1428.74 777.74 1490.88 737.641 1533.22 681.019C1576 623.805 1613.34 549.583 1594.07 480.678C1575.34 413.696 1491.86 394.564 1440.17 348.303C1403.01 315.055 1374.54 277.192 1334.12 248.05C1274.15 204.809 1221.22 127.659 1148.1 137.718C1076.17 147.614 1036.32 228.852 1002.85 293.624C973.112 351.174 962.228 416.412 970.883 480.678Z" fill="#8633B0"/>
<path fill-rule="evenodd" clip-rule="evenodd" d="M1207.27 636.584C1166.08 600.606 1147.26 547.534 1132.49 494.721C1119.61 448.668 1118.43 401.54 1128.46 354.776C1138.46 308.133 1156.65 263.829 1189.4 229.295C1224.12 192.68 1269.57 172.043 1317.21 155.741C1378.2 134.868 1440.58 105.088 1502.76 122.057C1573.38 141.332 1643.82 185.309 1672.92 252.818C1701.95 320.156 1685.76 401.828 1651.23 466.487C1621.1 522.904 1548.4 534.459 1500.17 576.291C1453.57 616.719 1435.07 693.897 1374.77 706.31C1314.08 718.803 1254.04 677.424 1207.27 636.584Z" fill="#EB478B"/>
</g>
</svg>
