<svg width="567" height="1585" viewBox="0 0 567 1585" fill="none" xmlns="http://www.w3.org/2000/svg">
<path fill-rule="evenodd" clip-rule="evenodd" d="M460.94 68.7167C518.723 73.791 576.466 92.3504 618.238 132.679C657.063 170.163 658.528 228.62 678.531 278.789C700.516 333.931 752.11 382.513 741.111 440.861C729.874 500.467 678.984 550.061 623.028 573.2C571.568 594.48 516.552 559.245 460.94 556.717C409.138 554.361 354.123 584.884 309.198 558.932C263.277 532.405 244.215 475.893 231.684 424.283C219.87 375.624 233.203 327.487 240.992 278.021C250.542 217.379 237.826 145.448 282.25 103.173C327.338 60.2678 399 63.2772 460.94 68.7167Z" fill="#8633B0"/>
<path fill-rule="evenodd" clip-rule="evenodd" d="M630.775 412.787C598.05 422.451 567.141 429.773 533.433 435.01C485.344 442.481 434.025 474.101 391.803 449.914C349.477 425.667 330.76 368.728 332.436 319.867C333.985 274.7 374.909 243.75 400.16 206.282C420.12 176.666 435.105 144.165 464.491 123.921C495.717 102.408 532.004 88.5649 569.865 89.3696C609.976 90.2222 645.57 108.866 680.555 128.513C725.73 153.882 785.086 170.489 801.802 219.619C818.654 269.148 796.568 328.371 761.883 367.546C730.428 403.073 676.221 399.366 630.775 412.787Z" fill="#EB478B"/>
<path fill-rule="evenodd" clip-rule="evenodd" d="M103.695 1091.93C107.329 1026.92 101.791 948.089 151.854 907.837C201.939 867.569 274.767 898.061 338.275 903.325C392.253 907.799 445.045 911.385 493.478 936.154C547.041 963.546 608.444 993.388 627.732 1051.36C646.893 1108.94 601.395 1165.42 589.603 1225.04C576.659 1290.48 598.321 1366.98 555.357 1417.26C510.744 1469.47 435.851 1485.71 368.057 1484.3C303.166 1482.94 238.733 1456.45 192.689 1409.68C151.162 1367.5 149.09 1303.05 132.976 1245.52C118.579 1194.12 100.71 1145.31 103.695 1091.93Z" fill="#4754EB"/>
<path fill-rule="evenodd" clip-rule="evenodd" d="M161.956 1164.07C187.462 1136.72 212.531 1112.6 241.361 1088.94C282.489 1055.18 313.563 996.506 366.34 996.309C419.248 996.112 467.697 1040.28 492.607 1088C515.635 1132.11 493.964 1184.39 490.551 1234.24C487.853 1273.65 491.392 1313.06 474.758 1348.71C457.083 1386.58 430.496 1419.92 394.489 1440.09C356.344 1461.47 312.798 1463.31 269.281 1463.85C213.089 1464.55 148.323 1481.48 105.987 1443.68C63.3076 1405.57 51.9549 1336.64 63.3056 1279.94C73.5994 1228.51 126.535 1202.07 161.956 1164.07Z" fill="#8633B0"/>
</svg>
